<svg width="57" height="74" viewBox="0 0 57 74" fill="none" xmlns="http://www.w3.org/2000/svg">
<g id="bxs:up-arrow" clip-path="url(#clip0_747_1802)" filter="url(#filter0_d_747_1802)">
<g id="Vector" filter="url(#filter1_d_747_1802)">
<path d="M11.6669 49L11.6669 7.00005C11.6682 6.57482 11.7855 6.158 12.0061 5.79447C12.2267 5.43094 12.5423 5.13445 12.9189 4.93693C13.2954 4.7394 13.7187 4.64831 14.1432 4.67347C14.5677 4.69863 14.9773 4.83909 15.3279 5.07971L45.6612 26.0797C46.9189 26.95 46.9189 29.0454 45.6612 29.918L15.3279 50.918C14.978 51.1611 14.5682 51.3037 14.1431 51.3302C13.7179 51.3567 13.2935 51.2662 12.9162 51.0685C12.5388 50.8708 12.2228 50.5735 12.0026 50.2088C11.7823 49.8441 11.6662 49.4261 11.6669 49Z" fill="#7799FF"/>
</g>
</g>
<defs>
<filter id="filter0_d_747_1802" x="-10" y="0" width="76" height="78" filterUnits="userSpaceOnUse" color-interpolation-filters="sRGB">
<feFlood flood-opacity="0" result="BackgroundImageFix"/>
<feColorMatrix in="SourceAlpha" type="matrix" values="0 0 0 0 0 0 0 0 0 0 0 0 0 0 0 0 0 0 127 0" result="hardAlpha"/>
<feOffset dy="12"/>
<feGaussianBlur stdDeviation="5"/>
<feComposite in2="hardAlpha" operator="out"/>
<feColorMatrix type="matrix" values="0 0 0 0 0.0320129 0 0 0 0 0.0474956 0 0 0 0 0.153662 0 0 0 0.15 0"/>
<feBlend mode="normal" in2="BackgroundImageFix" result="effect1_dropShadow_747_1802"/>
<feBlend mode="normal" in="SourceGraphic" in2="effect1_dropShadow_747_1802" result="shape"/>
</filter>
<filter id="filter1_d_747_1802" x="3.66699" y="-3.33057" width="50.9375" height="62.6653" filterUnits="userSpaceOnUse" color-interpolation-filters="sRGB">
<feFlood flood-opacity="0" result="BackgroundImageFix"/>
<feColorMatrix in="SourceAlpha" type="matrix" values="0 0 0 0 0 0 0 0 0 0 0 0 0 0 0 0 0 0 127 0" result="hardAlpha"/>
<feOffset/>
<feGaussianBlur stdDeviation="4"/>
<feComposite in2="hardAlpha" operator="out"/>
<feColorMatrix type="matrix" values="0 0 0 0 1 0 0 0 0 1 0 0 0 0 1 0 0 0 0.18 0"/>
<feBlend mode="normal" in2="BackgroundImageFix" result="effect1_dropShadow_747_1802"/>
<feBlend mode="normal" in="SourceGraphic" in2="effect1_dropShadow_747_1802" result="shape"/>
</filter>
<clipPath id="clip0_747_1802">
<rect width="56" height="56" fill="white" transform="matrix(-4.37114e-08 -1 -1 4.37114e-08 56 56)"/>
</clipPath>
</defs>
</svg>
