<svg width="57" height="74" viewBox="0 0 57 74" fill="none" xmlns="http://www.w3.org/2000/svg">
<g id="bxs:up-arrow" clip-path="url(#clip0_747_1805)" filter="url(#filter0_d_747_1805)">
<g id="Vector" filter="url(#filter1_d_747_1805)">
<path d="M45.3331 6.99995L45.3331 49C45.3318 49.4252 45.2145 49.842 44.9939 50.2055C44.7733 50.5691 44.4577 50.8656 44.0811 51.0631C43.7046 51.2606 43.2813 51.3517 42.8568 51.3265C42.4323 51.3014 42.0227 51.1609 41.6721 50.9203L11.3388 29.9203C10.0811 29.05 10.0811 26.9546 11.3388 26.082L41.6721 5.08195C42.022 4.83888 42.4318 4.69633 42.8569 4.66981C43.2821 4.64328 43.7065 4.73378 44.0838 4.93149C44.4612 5.12919 44.7772 5.42653 44.9974 5.7912C45.2177 6.15588 45.3338 6.57393 45.3331 6.99995Z" fill="#7799FF"/>
</g>
</g>
<defs>
<filter id="filter0_d_747_1805" x="-9" y="0" width="76" height="78" filterUnits="userSpaceOnUse" color-interpolation-filters="sRGB">
<feFlood flood-opacity="0" result="BackgroundImageFix"/>
<feColorMatrix in="SourceAlpha" type="matrix" values="0 0 0 0 0 0 0 0 0 0 0 0 0 0 0 0 0 0 127 0" result="hardAlpha"/>
<feOffset dy="12"/>
<feGaussianBlur stdDeviation="5"/>
<feComposite in2="hardAlpha" operator="out"/>
<feColorMatrix type="matrix" values="0 0 0 0 0.0320129 0 0 0 0 0.0474956 0 0 0 0 0.153662 0 0 0 0.15 0"/>
<feBlend mode="normal" in2="BackgroundImageFix" result="effect1_dropShadow_747_1805"/>
<feBlend mode="normal" in="SourceGraphic" in2="effect1_dropShadow_747_1805" result="shape"/>
</filter>
<filter id="filter1_d_747_1805" x="2.39551" y="-3.33472" width="50.9375" height="62.6653" filterUnits="userSpaceOnUse" color-interpolation-filters="sRGB">
<feFlood flood-opacity="0" result="BackgroundImageFix"/>
<feColorMatrix in="SourceAlpha" type="matrix" values="0 0 0 0 0 0 0 0 0 0 0 0 0 0 0 0 0 0 127 0" result="hardAlpha"/>
<feOffset/>
<feGaussianBlur stdDeviation="4"/>
<feComposite in2="hardAlpha" operator="out"/>
<feColorMatrix type="matrix" values="0 0 0 0 1 0 0 0 0 1 0 0 0 0 1 0 0 0 0.18 0"/>
<feBlend mode="normal" in2="BackgroundImageFix" result="effect1_dropShadow_747_1805"/>
<feBlend mode="normal" in="SourceGraphic" in2="effect1_dropShadow_747_1805" result="shape"/>
</filter>
<clipPath id="clip0_747_1805">
<rect width="56" height="56" fill="white" transform="matrix(1.19249e-08 1 1 -1.19249e-08 1 0)"/>
</clipPath>
</defs>
</svg>
