<svg width="22" height="18" viewBox="0 0 22 18" fill="none" xmlns="http://www.w3.org/2000/svg">
<path id="Vector" d="M18.2682 2.32785C16.9382 1.70785 15.4982 1.25785 13.9982 0.997849C13.985 0.997428 13.9719 0.999896 13.9598 1.00508C13.9477 1.01026 13.9369 1.01804 13.9282 1.02785C13.7482 1.35785 13.5382 1.78785 13.3982 2.11785C11.8072 1.87785 10.1892 1.87785 8.59816 2.11785C8.45816 1.77785 8.24816 1.35785 8.05816 1.02785C8.04816 1.00785 8.01816 0.997849 7.98816 0.997849C6.48816 1.25785 5.05816 1.70785 3.71816 2.32785C3.70816 2.32785 3.69816 2.33785 3.68816 2.34785C0.968164 6.41785 0.218164 10.3778 0.588164 14.2978C0.588164 14.3178 0.598164 14.3378 0.618164 14.3478C2.41816 15.6678 4.14816 16.4678 5.85816 16.9978C5.88816 17.0078 5.91816 16.9978 5.92816 16.9778C6.32816 16.4278 6.68816 15.8478 6.99816 15.2378C7.01816 15.1978 6.99816 15.1578 6.95816 15.1478C6.38816 14.9278 5.84816 14.6678 5.31816 14.3678C5.27816 14.3478 5.27816 14.2878 5.30816 14.2578C5.41816 14.1778 5.52816 14.0878 5.63816 14.0078C5.65816 13.9878 5.68816 13.9878 5.70816 13.9978C9.14816 15.5678 12.8582 15.5678 16.2582 13.9978C16.2782 13.9878 16.3082 13.9878 16.3282 14.0078C16.4382 14.0978 16.5482 14.1778 16.6582 14.2678C16.6982 14.2978 16.6982 14.3578 16.6482 14.3778C16.1282 14.6878 15.5782 14.9378 15.0082 15.1578C14.9682 15.1678 14.9582 15.2178 14.9682 15.2478C15.2882 15.8578 15.6482 16.4378 16.0382 16.9878C16.0682 16.9978 16.0982 17.0078 16.1282 16.9978C17.8482 16.4678 19.5782 15.6678 21.3782 14.3478C21.3982 14.3378 21.4082 14.3178 21.4082 14.2978C21.8482 9.76785 20.6782 5.83785 18.3082 2.34785C18.2982 2.33785 18.2882 2.32785 18.2682 2.32785ZM7.51816 11.9078C6.48816 11.9078 5.62816 10.9578 5.62816 9.78785C5.62816 8.61785 6.46816 7.66785 7.51816 7.66785C8.57817 7.66785 9.41816 8.62785 9.40816 9.78785C9.40816 10.9578 8.56816 11.9078 7.51816 11.9078ZM14.4882 11.9078C13.4582 11.9078 12.5982 10.9578 12.5982 9.78785C12.5982 8.61785 13.4382 7.66785 14.4882 7.66785C15.5482 7.66785 16.3882 8.62785 16.3782 9.78785C16.3782 10.9578 15.5482 11.9078 14.4882 11.9078Z" fill="#121949"/>
</svg>
