<svg width="24" height="20" viewBox="0 0 24 20" fill="none" xmlns="http://www.w3.org/2000/svg">
<path id="Vector" d="M12.2934 0.400146C12.9342 0.403747 14.5375 0.419347 16.2416 0.487751L16.8464 0.514152C18.5613 0.594556 20.275 0.733763 21.1259 0.970175C22.2599 1.28939 23.1504 2.21824 23.4516 3.3967C23.9316 5.26879 23.9916 8.91937 23.9988 9.80382L24 9.98623V10.195C23.9916 11.0795 23.9316 14.7313 23.4516 16.6022C23.1468 17.7842 22.2551 18.7143 21.1259 19.0287C20.275 19.2651 18.5613 19.4043 16.8464 19.4847L16.2416 19.5123C14.5375 19.5795 12.9342 19.5963 12.2934 19.5987L12.0114 19.5999H11.7054C10.3493 19.5915 4.67783 19.5303 2.87294 19.0287C1.74009 18.7095 0.848442 17.7806 0.547228 16.6022C0.0672035 14.7301 0.00720036 11.0795 0 10.195V9.80382C0.00720036 8.91937 0.0672035 5.26759 0.547228 3.3967C0.852043 2.21464 1.74369 1.28459 2.87414 0.971375C4.67783 0.46855 10.3505 0.407347 11.7066 0.400146H12.2934ZM9.59928 5.80042V14.2008L16.7996 10.0006L9.59928 5.80042Z" fill="#121949"/>
</svg>
